<?xml version="1.0" encoding="UTF-8" standalone="no"?><!DOCTYPE svg PUBLIC "-//W3C//DTD SVG 1.1//EN" "http://www.w3.org/Graphics/SVG/1.1/DTD/svg11.dtd"><svg width="100%" height="100%" viewBox="0 0 800 200" version="1.1" xmlns="http://www.w3.org/2000/svg" xmlns:xlink="http://www.w3.org/1999/xlink" xml:space="preserve" xmlns:serif="http://www.serif.com/" style="fill-rule:evenodd;clip-rule:evenodd;stroke-miterlimit:2;"><g><path d="M241.576,136.185c-6.695,-4.182 -10.042,-6.274 -10.042,-6.274c0.322,3.622 1.693,6.877 3.969,9.877c1.904,2.513 1.788,4.229 0.041,3.686c-4.848,-1.508 -2.926,2.434 0.242,3.035c3.029,0.578 4.817,0.198 4.738,-1.578c-0.119,-2.566 -0.006,-5.459 1.052,-8.746Z" style="fill:#2e0f17;"/><path d="M284.726,78.842c18.952,0.366 36.51,-2.391 52.672,-8.278c-1.376,4.165 -2.329,7.595 -1.619,10.041c0.772,2.652 4.951,7.703 9.798,16.518c3.337,6.068 2.845,13.314 -0.647,20.566c-14.367,29.83 -37.286,43.243 -60.204,42.645c-22.918,0.598 -45.837,-12.815 -60.203,-42.645c-3.495,-7.252 -3.985,-14.498 -0.648,-20.566c4.847,-8.815 9.026,-13.866 9.798,-16.518c0.71,-2.446 -0.289,-6.306 -1.668,-10.471c16.164,5.887 33.769,9.074 52.721,8.708Z" style="fill:#7c1238;"/><path d="M257.077,153.809c-12.654,-6.668 -24.091,-18.543 -32.554,-36.12c-3.495,-7.252 -3.985,-14.498 -0.648,-20.566c4.847,-8.815 9.026,-13.866 9.798,-16.518c0.665,-2.294 -0.171,-5.831 -1.416,-9.696c1.236,0.171 2.436,0.359 3.599,0.569c4.171,1.386 8.435,2.596 12.79,3.612c9.176,3.89 8.926,1.941 9.633,10.209c-41.544,-0.725 -25.622,56.308 -1.202,68.51Z" style="fill:#661536;"/><path d="M335.574,77.9c-0.082,1 -0.026,1.906 0.205,2.705c0.772,2.652 4.951,7.703 9.798,16.518c3.337,6.068 2.845,13.314 -0.647,20.566c-14.367,29.83 -37.286,43.243 -60.204,42.645c-6.566,0.406 -11.683,-0.929 -12.885,-1.167c24.325,3.861 72.584,-60.07 12.827,-72.005c-2.723,-1.033 19.811,-3.542 50.906,-9.262Z" style="fill:#480b23;"/><path d="M335.574,77.9c-0.08,1 -0.026,1.906 0.205,2.705c0.772,2.652 4.951,7.703 9.798,16.518c3.337,6.068 2.845,13.314 -0.647,20.566c-14.074,29.223 -36.358,42.69 -58.808,42.663c-0.097,-0.022 -0.194,-0.041 -0.293,-0.062c30.096,-0.057 67.532,-53.997 24.849,-76.147c2.953,-2.672 17.62,-2.557 20.256,-4.556l4.64,-1.687Z" style="fill:#2e0f17;"/><path d="M229.066,116.01c0.407,1.064 -1.367,1.644 -1.912,0.758c-4.66,-7.566 -3.964,-15.803 1.974,-23.449c1.45,-1.869 4.147,-1.39 3.401,0.394c-4.074,9.728 -5.62,16.64 -3.463,22.297Zm1.956,5.887c0.462,-0.6 0.493,-1.724 -0.686,-3.221c-0.634,-0.807 -1.751,-0.785 -2.432,-0.006c-0.806,0.921 -0.372,2.205 1.173,3.378c0.819,0.622 1.484,0.448 1.945,-0.151Z" style="fill:#9f365d;"/><path d="M266.474,157.154c-4.598,-2.732 -8.906,-5.538 -12.877,-8.402c-0.109,-0.952 -0.002,-1.935 0.407,-3.005c0.093,-0.244 0.196,-0.475 0.302,-0.698c4.156,3.698 8.838,7.188 13.917,10.428c-0.458,0.762 -1.041,1.322 -1.749,1.677Z" style="fill:#461653;"/><path d="M265.617,157.472c-3.574,-1.198 -7.087,-2.776 -10.502,-4.743c-1.334,-2.321 -2.096,-4.401 -1.111,-6.982c3.475,-9.106 17.129,-1.809 14.777,8.543c-0.634,1.749 -1.689,2.81 -3.164,3.182Z" style="fill:#2e0f17;"/><path d="M254.099,153.292c-2.038,-3.291 -3.71,-5.796 -2.43,-9.151c3.475,-9.105 17.132,-1.809 14.778,8.544c-0.859,2.371 -2.492,3.478 -4.898,3.319c-1.507,-0.252 -2.273,1.831 -2.552,6.236c-0.161,2.568 -1.763,3.735 -4.534,3.361c-2.003,-0.272 -3.187,-1.421 -3.602,-3.281c-0.128,-0.564 0.829,-0.987 2.509,-2.024c1.663,-1.026 2.604,-3.976 0.729,-7.004Z" style="fill:#480b23;"/><path d="M254.099,153.292c-2.038,-3.291 -3.71,-5.796 -2.43,-9.151c2.887,-7.564 15.034,-4.26 12.78,5.655c-0.859,2.371 -2.493,3.478 -4.9,3.319c-1.504,-0.252 -2.272,1.831 -2.549,6.236c-0.163,2.567 -1.765,3.735 -4.536,3.361c-0.615,-0.084 -1.154,-0.251 -1.615,-0.495c0.006,-0.516 0.946,-0.948 2.521,-1.921c1.663,-1.026 2.604,-3.976 0.729,-7.004Z" style="fill:#a52756;"/><path d="M329.96,140.126c-4.574,4.94 -9.507,8.942 -14.673,12.045c-0.818,-3.729 -0.709,-7.52 1.084,-11.058c2.104,-4.154 10.702,-5.562 13.589,-0.987Z" style="fill:#2e0f17;"/><path d="M317.68,138.617c2.306,-4.549 12.402,-5.806 14.252,0.485c1.293,4.401 -0.411,7.816 -5.466,10.203c-3.24,1.53 -4.272,3.335 -3.037,5.546c0.611,0.833 1.55,1.19 2.632,0.649c5.623,-2.813 6.482,4.644 0.203,4.858c-3.628,0.124 -6.216,-1.86 -7.773,-5.021c-2.378,-5.427 -3.526,-11.361 -0.811,-16.72Z" style="fill:#2e0f17;"/><path d="M322.115,135.284c3.792,-1.195 8.597,-0.33 9.817,3.818c1.293,4.401 -0.411,7.816 -5.466,10.203c-3.24,1.53 -4.272,3.335 -3.037,5.548c0.611,0.831 1.55,1.188 2.632,0.645c4.452,-2.226 5.918,1.984 3.218,3.94c-0.368,0.08 -0.769,0.132 -1.208,0.146c-3.628,0.124 -6.216,-1.86 -7.773,-5.02c-2.376,-5.426 -3.525,-11.361 -0.809,-16.721c0.53,-1.045 1.47,-1.914 2.626,-2.559Z" style="fill:#7c1238;"/><path d="M239.678,120.782c-17.924,-32.08 26.429,-36.555 34.292,-25.127c14.14,20.554 -16.102,56.566 -34.292,25.127Z" style="fill:#a52756;"/><path d="M239.953,110.869c-8.655,-15.493 12.765,-17.653 16.562,-12.134c6.829,9.926 -7.776,27.317 -16.562,12.134Z" style="fill:#be4a73;"/><path d="M284.668,55.445c-28.712,0 -52.38,6.277 -55.68,14.371l-0.397,-0l-0,1.981l0.002,0c0.075,8.992 25.151,16.271 56.075,16.271c30.78,-0 55.765,-7.213 56.069,-16.146l0.006,-0l0,-2.106l-0.395,-0c-3.303,-8.094 -26.971,-14.371 -55.68,-14.371Z" style="fill:#2e0f17;"/><path d="M284.619,84.143c30.887,0 56.078,-6.575 56.078,-14.639c-0,-8.065 -25.191,-14.64 -56.078,-14.64c-30.885,-0 -56.077,6.575 -56.077,14.64c0,8.064 25.192,14.639 56.077,14.639Z" style="fill:#a52756;"/><path d="M284.668,80.48c27.798,0 50.471,-5.314 50.471,-11.828c0,-6.515 -22.673,-11.828 -50.471,-11.828c-27.8,0 -50.472,5.313 -50.472,11.828c0,6.514 22.672,11.828 50.472,11.828Z" style="fill:#2e0f17;"/><path d="M286.219,80.475c27.156,-0.194 48.92,-5.412 48.92,-11.823c0,-4.651 -11.463,-8.677 -28.129,-10.608c-4.257,9.373 -11.189,16.848 -20.791,22.431Z" style="fill:#480b23;"/><path d="M243.82,61.658c-7.116,2.067 -11.415,4.751 -11.415,7.685c-0,6.532 21.304,11.828 47.582,11.828c8.947,-0 17.314,-0.613 24.461,-1.681c-6.073,0.607 -12.759,0.944 -19.78,0.944c-27.876,-0 -50.472,-5.296 -50.472,-11.828c0,-2.597 3.572,-4.997 9.624,-6.948Z" style="fill:#de789b;"/><path d="M245.553,112.356c-0.791,-1.343 -1.147,-4.436 -1.14,-8.909c1.486,-0.159 3.211,-0.21 5.172,-0.154c-4.336,-0.038 -7.533,-0.529 -9.488,-1.493c-1.592,-2.707 -2.302,-9.001 -2.259,-18.107c-0.037,9.733 -0.851,15.866 -2.443,18.344c-1.997,0.89 -5.166,1.287 -9.302,1.256c4.361,0.028 7.514,0.489 9.449,1.387c1.749,2.598 2.457,8.799 2.296,18.213c0.052,-9.885 0.95,-16.224 2.742,-18.574c1.01,-0.417 2.29,-0.704 3.833,-0.872c-0.031,4.779 -0.44,7.796 -1.229,9.028c-1.006,0.448 -2.602,0.649 -4.687,0.634c2.197,0.013 3.785,0.246 4.761,0.698c0.88,1.309 1.237,4.433 1.157,9.177c0.025,-4.981 0.479,-8.175 1.381,-9.359c0.998,-0.411 2.524,-0.574 4.537,-0.516c-2.185,-0.02 -3.796,-0.268 -4.78,-0.753Z" style="fill:#f9c6dc;"/><path d="M317.948,102.246c-3.262,-3.158 -7.454,-5.532 -12.214,-6.711c-1.59,0.772 -1.856,2.523 -1.619,4.295l0.052,0.378l0.304,-0.205c0.285,-0.19 0.576,-0.386 0.871,-0.557l0.097,-0.054l0.019,-0.112c0.113,-0.605 0.504,-0.813 1.038,-0.551c0.954,0.465 1.64,1.386 1.904,2.449c0.149,0.597 0.219,1.695 -0.351,2.094c-0.161,0.113 -0.345,0.14 -0.533,0.116l-0.097,-0.011l-0.078,0.066c-0.153,0.132 -0.306,0.263 -0.461,0.395l-0.14,0.12l0.076,0.175c0.442,1.014 2.158,1.255 3.075,1.348c1.873,0.188 3.837,0.252 5.668,-0.28c1.487,-0.43 2.206,-1.595 2.389,-2.955Z" style="fill:#2e0f17;"/><path d="M313.854,101.928c6.013,0.685 10.427,5.691 9.86,11.181c-0.566,5.489 -5.898,9.383 -11.911,8.698c-6.013,-0.686 -10.426,-5.693 -9.86,-11.18c0.566,-5.49 5.898,-9.385 11.911,-8.699Zm0.249,-4.322c-9.192,-1.047 -17.349,4.952 -18.22,13.401c-0.872,8.45 5.872,16.15 15.063,17.197c9.191,1.049 17.348,-4.952 18.221,-13.4c0.871,-8.451 -5.873,-16.149 -15.064,-17.198Z" style="fill:#2e0f17;"/><path d="M315.569,97.835c-1.15,-1.098 -2.37,-2.131 -3.658,-3.097c-1.923,-0.388 -3.969,0.006 -5.805,0.644c-1.922,0.667 -2.245,2.546 -1.991,4.448l0.015,0.103c0.454,-0.343 0.931,-0.663 1.425,-0.96c0.126,-0.264 0.34,-0.384 0.611,-0.349c0.254,-0.138 0.51,-0.269 0.772,-0.393c2.226,-0.671 4.657,-0.912 7.165,-0.625c0.496,0.056 0.985,0.134 1.466,0.229Z" style="fill:#2e0f17;"/><path d="M311.613,101.129c1.792,-0.787 3.857,-1.126 6.011,-0.882c6.028,0.688 10.457,5.701 9.889,11.196c-0.394,3.824 -3.102,6.872 -6.744,8.144c-1.792,0.787 -3.857,1.127 -6.009,0.881c-6.031,-0.689 -10.459,-5.701 -9.891,-11.197c0.393,-3.823 3.102,-6.872 6.744,-8.142Zm-2.552,-3.655c-4.968,2.1 -8.59,6.484 -9.148,11.896c-0.855,8.28 5.786,15.827 14.831,16.858c2.818,0.322 5.534,-0.027 7.968,-0.909c4.968,-2.1 8.59,-6.484 9.148,-11.896c0.855,-8.28 -5.786,-15.827 -14.831,-16.858c-2.818,-0.322 -5.534,0.027 -7.968,0.909Z" style="fill:#661536;"/><path d="M318.962,99.541c6.011,0.687 10.426,5.691 9.86,11.181c-0.359,3.467 -2.618,6.298 -5.749,7.741c-0.702,0.447 -1.464,0.818 -2.271,1.101c-1.788,0.785 -3.847,1.125 -5.994,0.88c-6.013,-0.684 -10.428,-5.691 -9.86,-11.18c0.388,-3.778 3.039,-6.801 6.612,-8.094c2.069,-1.303 4.664,-1.941 7.402,-1.629Zm-9.833,-2.061c-0.272,0.115 -0.539,0.237 -0.803,0.367c-3.855,2.338 -6.552,6.201 -7.027,10.81c-0.853,8.27 5.767,15.807 14.787,16.837c7.729,0.88 14.886,-3.466 15.776,-12.089c0.853,-8.27 -5.766,-15.807 -14.787,-16.836c-2.81,-0.32 -5.518,0.029 -7.946,0.911Z" style="fill:#a52756;"/><path d="M307.746,103.627l-0.002,0.002l0.002,-0l0,-0.002Zm1.383,-6.141c-0.272,0.116 -0.557,0.019 -0.82,0.151c-0.565,0.347 -1.362,0.774 -1.875,1.187c1.19,0.599 2.534,3.273 1.687,4.452c0.985,-0.88 2.152,-1.578 3.439,-2.052c0.522,-0.333 1.077,-0.622 1.658,-0.864c-0.81,-1.621 -1.63,-2.748 -2.46,-3.38c-0.555,0.143 -1.1,0.312 -1.629,0.506Z" style="fill:#2e0f17;"/><path d="M309.239,102.432c-0.294,0.254 -0.444,0.38 -0.444,0.38c0.27,0.615 1.193,0.999 2.771,1.158c0.311,0.031 0.619,0.058 0.925,0.08c1.34,0.058 2.635,-0.02 3.851,-0.373c1.707,-0.494 2.606,-2.274 1.986,-4.818c-0.516,-2.122 -2.219,-3.601 -4.406,-4.454c-0.568,-0.219 -1.171,-0.357 -1.803,-0.417c-1.272,-0.025 -2.658,0.238 -4.136,0.752c-1.468,0.508 -2.046,1.868 -1.759,4.01c0.369,-0.246 0.65,-0.426 0.848,-0.541c0.124,-0.665 0.607,-1.037 1.308,-0.696c2.51,1.224 2.643,5.137 0.859,4.919Z" style="fill:#661536;"/><path d="M318.436,101.302c0.142,-0.696 0.119,-1.52 -0.108,-2.443c-0.256,-1.057 -0.807,-1.953 -1.565,-2.694c-0.037,-0.017 -0.078,-0.042 -0.091,-0.067l-0.012,-0.028c-0.24,-0.226 -0.5,-0.436 -0.777,-0.63c-0.322,-0.112 -5.868,0.293 -6.168,0.59c-0.373,0.364 1.52,1.196 1.783,2.268c0.136,0.547 0.26,0.718 0.181,1.393c-0.413,3.519 6.682,1.69 6.757,1.611Z" style="fill:#9f365d;"/><path d="M317.401,96.895c-1.103,-0.241 -5.36,0.67 -6.001,0.597c-0.144,-0.016 -0.256,-0.029 -0.342,-0.008c0.216,0.24 0.388,0.502 0.458,0.778c0.138,0.558 0.264,0.733 0.182,1.425c-0.006,0.046 -0.013,0.12 -0.021,0.213c0.519,0.194 6.222,-0.186 6.709,-0.787c-0.018,-0.084 -0.037,-0.169 -0.058,-0.254c-0.177,-0.731 -0.497,-1.387 -0.927,-1.964Z" style="fill:#de789b;"/><path d="M309.239,102.432c-0.294,0.254 -0.444,0.38 -0.444,0.38c0.125,0.282 0.382,0.514 0.778,0.699c1.6,0.372 2.569,-0.243 2.852,-1.852c0.696,-3.966 -4.452,-8.679 -6.063,-5.313c-0.221,0.64 -0.268,1.444 -0.138,2.404c0.421,-0.17 0.735,-0.372 0.931,-0.487c0.124,-0.667 0.524,-1.091 1.225,-0.75c2.51,1.224 2.643,5.137 0.859,4.919Z" style="fill:#7c1238;"/><path d="M312.625,123.362c-0.518,-0.238 -0.316,-1.221 0.136,-1.151c5.854,0.894 10.317,-0.355 14.104,-3.551c0.52,-0.438 0.989,0.375 0.658,0.838c-3.686,5.146 -8.873,6.651 -14.898,3.864Z" style="fill:#de789b;"/><path d="M236.126,72.817c7.69,4.231 25.593,7.198 46.454,7.198c21.393,0 39.676,-3.12 47.023,-7.523c-5.801,-4.743 -24.445,-8.216 -46.55,-8.216c-22.61,-0 -41.599,3.632 -46.927,8.541Z" style="fill:#8ad2d4;"/><path d="M238.212,73.283c7.69,4.231 25.594,7.197 46.456,7.197c21.393,0 39.675,-3.119 47.022,-7.523c-5.802,-4.743 -24.446,-8.216 -46.551,-8.216c-22.607,0 -41.596,3.632 -46.927,8.542Z" style="fill:#00525e;"/><path d="M245.705,76.17c9.255,2.631 23.272,4.31 38.963,4.31c20.593,0 38.304,-2.891 46.151,-7.036c-8.77,-2.899 -23.204,-4.792 -39.525,-4.792c-21.008,0 -38.886,3.136 -45.589,7.518Z" style="fill:#028c9b;"/><path d="M272.865,80.155c3.785,0.211 7.737,0.325 11.803,0.325c16.189,0 30.596,-1.787 39.832,-4.566c-8.404,-1.924 -19.901,-3.11 -32.578,-3.11c-6.116,-0 -11.958,0.277 -17.31,0.779c-10.987,1.012 -10.958,5.323 -1.747,6.572Z" style="fill:#1eb8c8;"/><path d="M316.522,69.374c0.165,-0.534 0.076,-1.005 0,-1.309c-0.789,-3.165 -2.815,-4.417 -5.85,-3.787c-1.836,0.38 -3.184,1.553 -3.922,3.537c-0.413,1.109 -0.115,2.379 1.202,2.726c4.925,1.301 8.022,0.605 8.57,-1.167Z" style="fill:#fcf9ca;"/><path d="M316.649,69.482c0.162,-0.529 0.075,-0.995 -0,-1.297c-0.776,-3.134 -2.766,-4.374 -5.748,-3.75c-1.805,0.378 -3.129,1.538 -3.855,3.504c-0.405,1.097 -0.112,2.354 1.181,2.699c4.84,1.289 7.882,0.599 8.422,-1.156Z" style="fill:#00525e;"/><path d="M313.352,64.386c-0.721,-0.159 -1.539,-0.141 -2.451,0.049c-1.805,0.378 -3.129,1.538 -3.855,3.504c-0.376,1.022 -0.149,2.179 0.925,2.614c4.675,1.186 7.609,0.492 8.138,-1.23c0.161,-0.529 0.074,-0.995 0,-1.297c-0.477,-1.925 -1.413,-3.137 -2.757,-3.64Z" style="fill:#028c9b;"/><path d="M307.708,66.975c0.758,-1.573 2.1,-2.509 3.697,-2.602c2.133,-0.126 3.289,0.814 3.287,2.422c-0.008,2.918 -1.611,4.004 -4.652,3.323c-2.183,-0.49 -3.093,-1.572 -2.332,-3.143Z" style="fill:#1eb8c8;"/><path d="M308.192,66.486c0.534,-1.198 1.474,-1.912 2.597,-1.983c1.497,-0.095 2.307,0.62 2.305,1.848c-0.006,2.226 -1.13,3.054 -3.265,2.534c-1.532,-0.374 -2.17,-1.198 -1.637,-2.399Z" style="fill:#8ad2d4;"/><path d="M310.884,65.323c0.232,-0.186 -0.045,-0.506 -0.38,-0.419c-1.23,0.316 -2.261,1.092 -2.43,2.279c-0.056,0.403 0.661,0.696 0.849,0.378c0.472,-0.799 1.086,-1.544 1.961,-2.238Z" style="fill:#fcf9ca;"/><path d="M307.938,67.82c0.064,-0.209 0.355,-0.149 0.601,0.086c0.951,0.898 -1.01,1.237 -0.601,-0.086Z" style="fill:#fcf9ca;"/><path d="M261.762,71.943c0.203,-0.656 0.093,-1.233 -0,-1.608c-0.968,-3.88 -3.454,-5.415 -7.175,-4.644c-2.251,0.468 -3.905,1.905 -4.81,4.34c-0.504,1.359 -0.14,2.914 1.473,3.341c6.042,1.596 9.839,0.743 10.512,-1.429Z" style="fill:#fcf9ca;"/><path d="M261.917,72.075c0.2,-0.648 0.091,-1.22 0,-1.59c-0.952,-3.843 -3.393,-5.366 -7.05,-4.6c-2.211,0.462 -3.838,1.885 -4.726,4.297c-0.496,1.346 -0.137,2.887 1.449,3.31c5.935,1.58 9.666,0.735 10.327,-1.417Z" style="fill:#00525e;"/><path d="M257.874,65.825c-0.884,-0.194 -1.889,-0.174 -3.007,0.06c-2.211,0.462 -3.838,1.885 -4.726,4.297c-0.461,1.253 -0.184,2.674 1.135,3.205c5.733,1.457 9.33,0.603 9.978,-1.506c0.2,-0.65 0.093,-1.222 -0,-1.592c-0.584,-2.362 -1.734,-3.847 -3.38,-4.464Z" style="fill:#028c9b;"/><path d="M250.952,68.999c0.93,-1.929 2.575,-3.075 4.535,-3.191c2.616,-0.153 4.033,0.998 4.029,2.972c-0.007,3.578 -1.973,4.91 -5.704,4.074c-2.678,-0.601 -3.791,-1.927 -2.86,-3.855Z" style="fill:#1eb8c8;"/><path d="M251.545,68.402c0.654,-1.472 1.807,-2.346 3.184,-2.433c1.836,-0.119 2.831,0.762 2.827,2.266c-0.004,2.729 -1.384,3.745 -4.002,3.107c-1.879,-0.458 -2.66,-1.47 -2.009,-2.94Z" style="fill:#8ad2d4;"/><path d="M254.847,66.973c0.285,-0.227 -0.056,-0.618 -0.467,-0.514c-1.507,0.39 -2.771,1.338 -2.978,2.794c-0.07,0.497 0.81,0.854 1.041,0.464c0.578,-0.979 1.33,-1.893 2.404,-2.744Z" style="fill:#fcf9ca;"/><path d="M251.233,70.035c0.079,-0.256 0.436,-0.182 0.741,0.105c1.163,1.103 -1.241,1.518 -0.741,-0.105Z" style="fill:#fcf9ca;"/><path d="M286.888,72.269c0.368,-1.191 0.171,-2.24 0,-2.921c-1.759,-7.048 -6.271,-9.836 -13.032,-8.434c-4.09,0.849 -7.093,3.459 -8.738,7.88c-0.919,2.472 -0.256,5.297 2.678,6.073c10.973,2.897 17.87,1.35 19.092,-2.598Z" style="fill:#fcf9ca;"/><path d="M287.169,72.565c0.357,-1.161 0.165,-2.185 0,-2.848c-1.702,-6.88 -6.073,-9.602 -12.619,-8.231c-3.96,0.828 -6.868,3.375 -8.46,7.69c-0.888,2.41 -0.246,5.169 2.592,5.926c10.626,2.829 17.304,1.316 18.487,-2.537Z" style="fill:#00525e;"/><path d="M279.931,61.379c-1.581,-0.349 -3.378,-0.312 -5.381,0.107c-3.96,0.828 -6.868,3.375 -8.46,7.69c-0.826,2.243 -0.328,4.785 2.03,5.737c10.263,2.607 16.703,1.081 17.863,-2.697c0.356,-1.161 0.164,-2.185 -0,-2.848c-1.048,-4.229 -3.103,-6.888 -6.052,-7.989Z" style="fill:#028c9b;"/><path d="M267.54,67.058c1.666,-3.451 4.609,-5.505 8.121,-5.71c4.681,-0.275 7.219,1.788 7.211,5.319c-0.015,6.402 -3.535,8.787 -10.209,7.292c-4.795,-1.074 -6.788,-3.451 -5.123,-6.901Z" style="fill:#1eb8c8;"/><path d="M268.605,65.99c1.169,-2.633 3.236,-4.2 5.699,-4.357c3.286,-0.209 5.066,1.365 5.061,4.058c-0.01,4.883 -2.48,6.702 -7.165,5.562c-3.364,-0.821 -4.764,-2.632 -3.595,-5.263Z" style="fill:#89d2d7;"/><path d="M274.515,63.432c0.512,-0.405 -0.101,-1.109 -0.838,-0.919c-2.697,0.698 -4.96,2.397 -5.33,5.001c-0.126,0.888 1.452,1.528 1.863,0.83c1.036,-1.753 2.381,-3.388 4.305,-4.912Z" style="fill:#fcf9ca;"/><path d="M268.046,68.914c0.142,-0.459 0.78,-0.328 1.323,0.188c2.084,1.972 -2.218,2.717 -1.323,-0.188Z" style="fill:#fcf9ca;"/><path d="M314.349,74.57c0.054,-0.172 0.025,-0.325 -0,-0.426c-0.256,-1.03 -0.915,-1.437 -1.904,-1.232c-0.598,0.124 -1.036,0.505 -1.276,1.152c-0.134,0.361 -0.037,0.774 0.391,0.886c1.604,0.423 2.61,0.198 2.789,-0.38Z" style="fill:#fcf9ca;"/><path d="M314.391,74.605c0.053,-0.17 0.024,-0.324 0,-0.421c-0.254,-1.02 -0.901,-1.423 -1.871,-1.221c-0.587,0.124 -1.018,0.5 -1.254,1.14c-0.132,0.359 -0.037,0.766 0.384,0.878c1.576,0.419 2.565,0.196 2.741,-0.376Z" style="fill:#00525e;"/><path d="M313.317,72.947c-0.234,-0.05 -0.5,-0.046 -0.797,0.016c-0.587,0.124 -1.018,0.5 -1.254,1.14c-0.122,0.333 -0.049,0.71 0.3,0.851c1.522,0.386 2.476,0.159 2.649,-0.399c0.052,-0.173 0.023,-0.324 0,-0.423c-0.155,-0.626 -0.46,-1.022 -0.898,-1.185Z" style="fill:#028c9b;"/><path d="M311.481,73.789c0.246,-0.512 0.683,-0.815 1.204,-0.846c0.694,-0.04 1.07,0.264 1.069,0.788c-0.002,0.95 -0.524,1.303 -1.515,1.082c-0.71,-0.159 -1.006,-0.512 -0.758,-1.024Z" style="fill:#8ad2d4;"/><path d="M311.638,73.632c0.175,-0.392 0.481,-0.623 0.845,-0.646c0.487,-0.031 0.751,0.202 0.751,0.601c-0.002,0.723 -0.369,0.993 -1.063,0.824c-0.498,-0.122 -0.706,-0.389 -0.533,-0.779Z" style="fill:#8ad2d4;"/><path d="M312.515,73.252c0.075,-0.06 -0.016,-0.165 -0.125,-0.136c-0.399,0.103 -0.735,0.355 -0.789,0.741c-0.019,0.132 0.213,0.227 0.276,0.124c0.153,-0.26 0.352,-0.502 0.638,-0.729Z" style="fill:#fcf9ca;"/><path d="M311.557,74.064c0.019,-0.068 0.114,-0.048 0.195,0.029c0.309,0.291 -0.329,0.402 -0.195,-0.029Z" style="fill:#fcf9ca;"/><path d="M291.076,69.8c0.055,-0.174 0.026,-0.327 0,-0.426c-0.257,-1.03 -0.915,-1.437 -1.904,-1.232c-0.597,0.124 -1.035,0.504 -1.276,1.15c-0.133,0.361 -0.036,0.774 0.392,0.888c1.602,0.423 2.61,0.196 2.788,-0.38Z" style="fill:#fcf9ca;"/><path d="M291.117,69.835c0.054,-0.172 0.025,-0.324 0,-0.423c-0.252,-1.02 -0.9,-1.423 -1.869,-1.219c-0.588,0.122 -1.02,0.5 -1.255,1.14c-0.132,0.357 -0.037,0.766 0.384,0.878c1.575,0.419 2.566,0.196 2.74,-0.376Z" style="fill:#00525e;"/><path d="M290.045,68.177c-0.235,-0.052 -0.5,-0.046 -0.797,0.016c-0.588,0.122 -1.02,0.5 -1.255,1.14c-0.122,0.331 -0.048,0.71 0.301,0.851c1.522,0.386 2.476,0.159 2.649,-0.401c0.052,-0.171 0.023,-0.324 -0,-0.421c-0.156,-0.628 -0.462,-1.022 -0.898,-1.185Z" style="fill:#1eb8c8;"/><path d="M288.209,69.019c0.246,-0.512 0.682,-0.817 1.202,-0.848c0.694,-0.04 1.07,0.266 1.07,0.79c-0.002,0.95 -0.523,1.303 -1.514,1.082c-0.71,-0.161 -1.007,-0.512 -0.758,-1.024Z" style="fill:#8ad2d4;"/><path d="M288.366,68.86c0.172,-0.39 0.479,-0.623 0.845,-0.646c0.487,-0.031 0.75,0.204 0.75,0.601c-0.001,0.725 -0.368,0.995 -1.062,0.826c-0.498,-0.122 -0.706,-0.39 -0.533,-0.781Z" style="fill:#8ad2d4;"/><path d="M289.242,68.482c0.076,-0.06 -0.015,-0.165 -0.124,-0.136c-0.399,0.103 -0.735,0.355 -0.791,0.741c-0.018,0.132 0.215,0.227 0.277,0.122c0.153,-0.26 0.353,-0.502 0.638,-0.727Z" style="fill:#fcf9ca;"/><path d="M288.282,69.294c0.022,-0.068 0.117,-0.048 0.196,0.027c0.31,0.293 -0.328,0.404 -0.196,-0.027Z" style="fill:#fcf9ca;"/><path d="M290.886,73.535c-0.345,4.372 10.066,3.513 12.486,2.831c2.559,-0.721 3.426,-2.069 2.792,-3.452c1.838,1.522 1.53,3.05 -1.148,4.014c-3.601,1.295 -17.674,1.026 -14.13,-3.393Z" style="fill:#00525e;"/><path d="M305.524,68.968c-0.298,3.782 8.703,3.039 10.795,2.449c2.214,-0.624 2.963,-1.789 2.414,-2.986c1.588,1.319 1.324,2.639 -0.993,3.471c-3.114,1.121 -15.283,0.886 -12.216,-2.934Z" style="fill:#00525e;"/><path d="M264.669,72.612c-0.514,6.5 14.961,5.226 18.56,4.21c3.804,-1.075 5.092,-3.076 4.148,-5.133c2.732,2.265 2.276,4.535 -1.707,5.968c-5.351,1.926 -26.274,1.524 -21.001,-5.045Z" style="fill:#00525e;"/><path d="M268.799,75.738c0.139,-0.45 0.064,-0.846 -0,-1.104c-0.665,-2.664 -2.372,-3.719 -4.927,-3.188c-1.546,0.32 -2.682,1.307 -3.303,2.979c-0.347,0.934 -0.097,2.003 1.013,2.296c4.147,1.095 6.755,0.51 7.217,-0.983Z" style="fill:#fcf9ca;"/><path d="M268.905,75.829c0.136,-0.446 0.062,-0.838 0,-1.092c-0.653,-2.639 -2.33,-3.684 -4.841,-3.159c-1.519,0.318 -2.636,1.296 -3.244,2.952c-0.342,0.924 -0.095,1.981 0.992,2.272c4.078,1.084 6.64,0.504 7.093,-0.973Z" style="fill:#00525e;"/><path d="M266.129,71.538c-0.607,-0.134 -1.298,-0.121 -2.065,0.04c-1.519,0.318 -2.636,1.296 -3.244,2.952c-0.318,0.859 -0.128,1.834 0.777,2.2c3.938,0.999 6.409,0.413 6.853,-1.035c0.137,-0.446 0.064,-0.838 -0,-1.092c-0.402,-1.623 -1.191,-2.643 -2.321,-3.065Z" style="fill:#028c9b;"/><path d="M261.374,73.717c0.64,-1.324 1.769,-2.113 3.116,-2.191c1.796,-0.107 2.769,0.684 2.767,2.04c-0.006,2.457 -1.357,3.372 -3.917,2.798c-1.84,-0.413 -2.604,-1.324 -1.966,-2.647Z" style="fill:#1eb8c8;"/><path d="M261.783,73.306c0.448,-1.01 1.241,-1.611 2.187,-1.671c1.261,-0.08 1.943,0.523 1.941,1.557c-0.003,1.873 -0.952,2.571 -2.749,2.133c-1.29,-0.315 -1.827,-1.009 -1.379,-2.019Z" style="fill:#8ad2d4;"/><path d="M264.05,72.325c0.196,-0.155 -0.039,-0.425 -0.32,-0.351c-1.035,0.266 -1.904,0.917 -2.046,1.918c-0.048,0.341 0.557,0.585 0.716,0.318c0.397,-0.673 0.913,-1.3 1.65,-1.885Z" style="fill:#fcf9ca;"/><path d="M261.57,74.429c0.054,-0.177 0.299,-0.126 0.506,0.071c0.801,0.757 -0.851,1.042 -0.506,-0.071Z" style="fill:#fcf9ca;"/><path d="M281.577,78.809c0.054,-0.174 0.025,-0.328 0,-0.427c-0.258,-1.029 -0.917,-1.436 -1.904,-1.231c-0.597,0.124 -1.036,0.504 -1.276,1.15c-0.134,0.363 -0.037,0.776 0.39,0.888c1.603,0.423 2.612,0.196 2.79,-0.38Z" style="fill:#fcf9ca;"/><path d="M281.618,78.844c0.052,-0.173 0.025,-0.324 -0,-0.423c-0.252,-1.018 -0.9,-1.421 -1.871,-1.219c-0.586,0.122 -1.018,0.5 -1.253,1.14c-0.132,0.357 -0.037,0.766 0.384,0.878c1.574,0.419 2.565,0.196 2.74,-0.376Z" style="fill:#00525e;"/><path d="M280.545,77.186c-0.234,-0.052 -0.5,-0.046 -0.798,0.016c-0.586,0.122 -1.018,0.5 -1.253,1.14c-0.124,0.333 -0.049,0.709 0.3,0.851c1.521,0.386 2.477,0.159 2.647,-0.399c0.055,-0.173 0.025,-0.324 0,-0.423c-0.155,-0.628 -0.459,-1.022 -0.896,-1.185Z" style="fill:#028c9b;"/><path d="M278.707,78.028c0.248,-0.512 0.685,-0.817 1.204,-0.846c0.695,-0.041 1.071,0.264 1.071,0.787c-0.004,0.951 -0.524,1.303 -1.515,1.082c-0.711,-0.159 -1.006,-0.511 -0.76,-1.023Z" style="fill:#8ad2d4;"/><path d="M278.866,77.871c0.173,-0.392 0.479,-0.623 0.846,-0.646c0.486,-0.033 0.75,0.201 0.748,0.601c0,0.723 -0.366,0.993 -1.061,0.824c-0.5,-0.122 -0.705,-0.39 -0.533,-0.779Z" style="fill:#8ad2d4;"/><path d="M279.743,77.49c0.075,-0.06 -0.016,-0.164 -0.124,-0.135c-0.402,0.103 -0.737,0.355 -0.792,0.74c-0.017,0.132 0.216,0.227 0.278,0.125c0.153,-0.26 0.353,-0.503 0.638,-0.73Z" style="fill:#fcf9ca;"/><path d="M278.783,78.303c0.021,-0.068 0.116,-0.049 0.196,0.029c0.31,0.291 -0.328,0.401 -0.196,-0.029Z" style="fill:#fcf9ca;"/><path d="M305.295,73.512c0.239,-0.774 0.111,-1.455 0,-1.897c-1.142,-4.58 -4.074,-6.393 -8.467,-5.48c-2.657,0.551 -4.61,2.248 -5.676,5.12c-0.597,1.605 -0.167,3.441 1.739,3.944c7.13,1.884 11.611,0.878 12.404,-1.687Z" style="fill:#fcf9ca;"/><path d="M305.478,73.711c0.23,-0.754 0.106,-1.417 -0,-1.846c-1.104,-4.459 -3.937,-6.224 -8.179,-5.336c-2.568,0.537 -4.452,2.187 -5.484,4.985c-0.576,1.563 -0.161,3.349 1.679,3.84c6.888,1.834 11.218,0.853 11.984,-1.643Z" style="fill:#00525e;"/><path d="M300.787,66.461c-1.026,-0.227 -2.191,-0.203 -3.488,0.068c-2.568,0.537 -4.452,2.187 -5.484,4.985c-0.535,1.453 -0.213,3.101 1.317,3.719c6.651,1.689 10.825,0.698 11.576,-1.749c0.233,-0.752 0.107,-1.415 -0,-1.846c-0.679,-2.741 -2.011,-4.463 -3.921,-5.177Z" style="fill:#028c9b;"/><path d="M292.756,70.141c1.08,-2.237 2.988,-3.567 5.262,-3.701c3.035,-0.179 4.679,1.157 4.673,3.447c-0.009,4.15 -2.29,5.695 -6.616,4.726c-3.108,-0.696 -4.399,-2.236 -3.319,-4.472Z" style="fill:#1eb8c8;"/><path d="M293.446,69.447c0.758,-1.706 2.096,-2.72 3.694,-2.823c2.129,-0.136 3.283,0.884 3.279,2.631c-0.006,3.165 -1.608,4.344 -4.644,3.605c-2.182,-0.531 -3.087,-1.706 -2.329,-3.413Z" style="fill:#8ad2d4;"/><path d="M297.276,67.791c0.331,-0.263 -0.066,-0.719 -0.543,-0.595c-1.747,0.452 -3.215,1.551 -3.456,3.24c-0.081,0.576 0.943,0.991 1.208,0.539c0.671,-1.138 1.544,-2.197 2.791,-3.184Z" style="fill:#fcf9ca;"/><path d="M293.083,71.344c0.091,-0.297 0.504,-0.212 0.857,0.122c1.352,1.278 -1.438,1.761 -0.857,-0.122Z" style="fill:#fcf9ca;"/><path d="M293.262,75.319c0.128,-0.415 0.058,-0.78 -0,-1.016c-0.613,-2.451 -2.182,-3.421 -4.532,-2.934c-1.423,0.297 -2.468,1.204 -3.038,2.742c-0.32,0.859 -0.09,1.84 0.93,2.109c3.816,1.009 6.215,0.47 6.64,-0.901Z" style="fill:#fcf9ca;"/><path d="M293.359,75.402c0.126,-0.411 0.058,-0.772 -0,-1.006c-0.601,-2.428 -2.143,-3.388 -4.452,-2.905c-1.398,0.293 -2.424,1.193 -2.987,2.715c-0.314,0.851 -0.087,1.824 0.916,2.09c3.75,0.999 6.106,0.465 6.523,-0.894Z" style="fill:#00525e;"/><path d="M290.805,71.454c-0.559,-0.122 -1.193,-0.11 -1.898,0.037c-1.398,0.293 -2.424,1.193 -2.987,2.715c-0.29,0.791 -0.116,1.689 0.718,2.024c3.62,0.919 5.893,0.38 6.302,-0.952c0.126,-0.409 0.058,-0.77 -0,-1.004c-0.369,-1.493 -1.094,-2.43 -2.135,-2.82Z" style="fill:#028c9b;"/><path d="M286.432,73.459c0.588,-1.219 1.627,-1.943 2.866,-2.016c1.652,-0.097 2.546,0.632 2.544,1.877c-0.005,2.259 -1.246,3.1 -3.602,2.573c-1.691,-0.378 -2.395,-1.218 -1.808,-2.434Z" style="fill:#1eb8c8;"/><path d="M286.809,73.081c0.413,-0.929 1.142,-1.481 2.01,-1.538c1.16,-0.073 1.788,0.481 1.786,1.433c-0.004,1.722 -0.874,2.364 -2.528,1.963c-1.187,-0.289 -1.681,-0.929 -1.268,-1.858Z" style="fill:#8ad2d4;"/><path d="M288.893,72.179c0.18,-0.143 -0.035,-0.391 -0.295,-0.323c-0.952,0.244 -1.751,0.843 -1.881,1.762c-0.044,0.314 0.512,0.541 0.658,0.295c0.364,-0.621 0.839,-1.196 1.518,-1.734Z" style="fill:#fcf9ca;"/><path d="M286.611,74.113c0.05,-0.161 0.275,-0.115 0.467,0.066c0.735,0.696 -0.783,0.959 -0.467,-0.066Z" style="fill:#fcf9ca;"/><path d="M302.844,55.827c2.746,-9.319 -12.797,-16.437 -17.026,-7.246c-6.337,13.775 13.965,17.634 17.026,7.246Z" style="fill:#fcf9ca;"/><path d="M303.787,56.041c2.746,-9.319 -12.798,-16.438 -17.027,-7.246c-6.337,13.775 13.965,17.633 17.027,7.246Z" style="fill:#00525e;"/><path d="M297.912,45.487c-4.076,-1.808 -9.033,-1.298 -11.152,3.308c-2.602,5.658 -0.71,9.642 2.637,11.653c4.803,2.067 11.547,0.628 13.209,-5.01c1.235,-4.191 -1.227,-7.933 -4.694,-9.951Z" style="fill:#028c9b;"/><path d="M301.408,54.654c2.266,-8.157 -10.564,-14.389 -14.055,-6.342c-5.231,12.059 11.526,15.436 14.055,6.342Z" style="fill:#1eb8c8;"/><path d="M299.096,53.066c1.807,-6.616 -8.415,-11.669 -11.196,-5.144c-4.167,9.779 9.184,12.517 11.196,5.144Z" style="fill:#89d2d7;"/><path d="M286.795,51.468c0.142,-0.459 0.778,-0.327 1.322,0.187c2.085,1.974 -2.218,2.718 -1.322,-0.187Zm6.467,-5.481c0.512,-0.407 -0.099,-1.109 -0.836,-0.919c-2.697,0.696 -4.962,2.394 -5.33,4.999c-0.127,0.89 1.45,1.529 1.863,0.831c1.035,-1.754 2.381,-3.387 4.303,-4.911Z" style="fill:#fcf9ca;"/><path d="M268.762,27.504c1.014,-3.438 -4.722,-6.066 -6.283,-2.674c-2.338,5.084 5.154,6.507 6.283,2.674Z" style="fill:#fcf9ca;"/><path d="M269.111,27.583c1.014,-3.44 -4.724,-6.065 -6.285,-2.674c-2.338,5.085 5.154,6.508 6.285,2.674Z" style="fill:#00525e;"/><path d="M266.943,23.688c-1.505,-0.667 -3.333,-0.477 -4.117,1.221c-0.959,2.089 -0.261,3.559 0.974,4.301c1.772,0.762 4.262,0.233 4.875,-1.85c0.455,-1.545 -0.452,-2.926 -1.732,-3.672Z" style="fill:#028c9b;"/><path d="M268.233,27.071c0.835,-3.009 -3.9,-5.311 -5.187,-2.34c-1.932,4.45 4.254,5.697 5.187,2.34Z" style="fill:#1eb8c8;"/><path d="M267.379,26.486c0.667,-2.441 -3.104,-4.307 -4.132,-1.899c-1.537,3.609 3.39,4.619 4.132,1.899Z" style="fill:#8ad2d4;"/><path d="M262.84,25.896c0.052,-0.17 0.287,-0.122 0.489,0.068c0.768,0.729 -0.821,1.005 -0.489,-0.068Zm2.387,-2.024c0.188,-0.149 -0.037,-0.409 -0.308,-0.337c-0.997,0.256 -1.833,0.882 -1.968,1.844c-0.047,0.327 0.535,0.564 0.688,0.306c0.382,-0.648 0.878,-1.251 1.588,-1.813Z" style="fill:#fcf9ca;"/><path d="M289.76,40.428c0.772,-2.589 -3.601,-4.565 -4.79,-2.013c-1.784,3.826 3.929,4.898 4.79,2.013Z" style="fill:#fcf9ca;"/><path d="M290.023,40.488c0.774,-2.589 -3.598,-4.567 -4.789,-2.013c-1.782,3.826 3.929,4.896 4.789,2.013Z" style="fill:#00525e;"/><path d="M288.371,37.556c-1.146,-0.502 -2.54,-0.361 -3.137,0.919c-0.731,1.571 -0.2,2.678 0.743,3.236c1.351,0.574 3.248,0.175 3.715,-1.392c0.347,-1.163 -0.345,-2.203 -1.321,-2.763Z" style="fill:#028c9b;"/><path d="M289.355,40.102c0.637,-2.265 -2.971,-3.997 -3.954,-1.761c-1.472,3.349 3.244,4.287 3.954,1.761Z" style="fill:#1eb8c8;"/><path d="M288.705,39.662c0.508,-1.839 -2.368,-3.242 -3.149,-1.429c-1.173,2.714 2.583,3.476 3.149,1.429Z" style="fill:#8ad2d4;"/><path d="M285.244,39.218c0.04,-0.128 0.219,-0.092 0.372,0.052c0.588,0.547 -0.624,0.754 -0.372,-0.052Zm1.821,-1.524c0.143,-0.113 -0.03,-0.307 -0.237,-0.255c-0.758,0.194 -1.394,0.666 -1.499,1.389c-0.035,0.246 0.409,0.424 0.524,0.231c0.292,-0.487 0.671,-0.941 1.212,-1.365Z" style="fill:#fcf9ca;"/><path d="M264.498,39.825c1.272,-4.263 -5.926,-7.516 -7.884,-3.314c-2.936,6.3 6.466,8.064 7.884,3.314Z" style="fill:#fcf9ca;"/><path d="M264.936,39.921c1.27,-4.26 -5.928,-7.515 -7.886,-3.311c-2.936,6.298 6.467,8.062 7.886,3.311Z" style="fill:#00525e;"/><path d="M262.214,35.097c-1.887,-0.828 -4.183,-0.593 -5.164,1.513c-1.206,2.586 -0.33,4.409 1.222,5.328c2.224,0.944 5.348,0.287 6.117,-2.292c0.572,-1.916 -0.568,-3.626 -2.175,-4.549Z" style="fill:#028c9b;"/><path d="M263.833,39.289c1.051,-3.73 -4.892,-6.581 -6.51,-2.9c-2.421,5.514 5.341,7.058 6.51,2.9Z" style="fill:#1eb8c8;"/><path d="M262.764,38.562c0.836,-3.025 -3.899,-5.336 -5.187,-2.352c-1.929,4.472 4.255,5.724 5.187,2.352Z" style="fill:#8ad2d4;"/><path d="M257.066,37.831c0.065,-0.209 0.36,-0.149 0.612,0.085c0.966,0.904 -1.027,1.243 -0.612,-0.085Zm2.995,-2.507c0.237,-0.184 -0.046,-0.506 -0.387,-0.419c-1.249,0.318 -2.298,1.096 -2.469,2.286c-0.058,0.406 0.673,0.698 0.863,0.38c0.479,-0.802 1.103,-1.549 1.993,-2.247Z" style="fill:#fcf9ca;"/><path d="M268.762,57.15c1.014,-3.395 -4.722,-5.99 -6.283,-2.641c-2.338,5.02 5.154,6.426 6.283,2.641Z" style="fill:#fcf9ca;"/><path d="M269.111,57.227c1.014,-3.395 -4.724,-5.989 -6.285,-2.641c-2.338,5.021 5.154,6.426 6.285,2.641Z" style="fill:#00525e;"/><path d="M266.943,53.382c-1.505,-0.659 -3.333,-0.473 -4.117,1.204c-0.959,2.064 -0.261,3.514 0.974,4.247c1.772,0.754 4.262,0.229 4.875,-1.827c0.455,-1.526 -0.452,-2.889 -1.732,-3.624Z" style="fill:#028c9b;"/><path d="M268.233,56.721c0.835,-2.972 -3.9,-5.243 -5.187,-2.311c-1.932,4.396 4.254,5.625 5.187,2.311Z" style="fill:#1eb8c8;"/><path d="M267.379,56.144c0.667,-2.411 -3.104,-4.253 -4.132,-1.876c-1.537,3.564 3.39,4.561 4.132,1.876Z" style="fill:#8ad2d4;"/><path d="M262.84,55.562c0.052,-0.169 0.287,-0.12 0.489,0.068c0.768,0.719 -0.821,0.989 -0.489,-0.068Zm2.387,-1.999c0.188,-0.148 -0.037,-0.404 -0.308,-0.334c-0.997,0.254 -1.833,0.873 -1.968,1.821c-0.047,0.324 0.535,0.558 0.688,0.302c0.382,-0.638 0.878,-1.233 1.588,-1.789Z" style="fill:#fcf9ca;"/><path d="M279.531,44.131c1.755,-5.955 -8.175,-10.502 -10.876,-4.63c-4.049,8.801 8.922,11.266 10.876,4.63Z" style="fill:#fcf9ca;"/><path d="M280.134,44.267c1.755,-5.955 -8.177,-10.502 -10.878,-4.629c-4.048,8.8 8.922,11.266 10.878,4.629Z" style="fill:#00525e;"/><path d="M276.38,37.525c-2.604,-1.156 -5.77,-0.83 -7.124,2.113c-1.663,3.615 -0.453,6.161 1.683,7.444c3.07,1.321 7.378,0.402 8.441,-3.201c0.789,-2.676 -0.783,-5.067 -3,-6.356Z" style="fill:#028c9b;"/><path d="M278.614,43.381c1.449,-5.212 -6.75,-9.193 -8.98,-4.053c-3.341,7.706 7.365,9.864 8.98,4.053Z" style="fill:#1eb8c8;"/><path d="M277.139,42.367c1.153,-4.228 -5.377,-7.456 -7.156,-3.287c-2.662,6.248 5.868,7.997 7.156,3.287Z" style="fill:#8ad2d4;"/><path d="M269.278,41.345c0.091,-0.293 0.498,-0.21 0.845,0.12c1.332,1.26 -1.417,1.735 -0.845,-0.12Zm4.132,-3.502c0.327,-0.26 -0.064,-0.708 -0.533,-0.588c-1.724,0.446 -3.171,1.532 -3.407,3.196c-0.08,0.568 0.928,0.975 1.19,0.529c0.661,-1.119 1.522,-2.164 2.75,-3.137Z" style="fill:#fcf9ca;"/></g><g><path d="M464.604,147.128c-0.635,-1.33 -1.47,-3.154 -2.168,-4.921c0,-0 -0.439,-2.416 1.161,-6.283c-0,-0 -3.09,-20.718 -1.894,-28.504c-0,0 4.214,-24.341 11.596,-31.07c0,0 10.347,-9.059 17.018,-11.396c0,-0 0.542,-1.691 -0.295,-4.318c0,-0 -2.017,-3.456 -1.758,-9.761c-0,-0 0.446,-9.908 2.254,-14.071c0,-0 3.303,-7.934 5.36,-9.987c-0,-0 3.615,-4.316 9.05,-5.284c-0,0 2.42,-0.64 6.68,1.27c-0,0 5.923,3.554 7.633,7.302c-0,0 2.586,4.775 2.932,10.997c0,-0 0.917,7.336 -0.023,16.931c0,-0 -1.43,5.173 1.064,5.536c0,-0 20.228,4.515 25.669,19.277c0,-0 5.648,14.569 6.924,27.628c0,-0 0.745,2.321 1.122,3.232c-0,-0 -0.216,0.698 -0.534,1.39c0,0 0.281,0.81 0.471,1.115l-0.625,0.986c-0,-0 0.958,1.827 0.187,8.622c0,-0 -0.215,4.503 -1.847,9.672c0,-0 3.651,6.304 2.581,9.081c0,0 -1.598,5.371 -3.473,8.462c-0.319,0.527 -0.65,0.991 -0.98,1.346c-0,0 -0.633,1.286 -4.761,-1.922c-0,-0 -1.289,-0.633 -3.104,-0.177c0,0 -2.579,-0.966 -2.435,-2.766c0,0 0.213,-0.589 0.63,-1.39c0.095,-0.187 0.202,-0.386 0.322,-0.591c-0,0 -0.061,-0.091 -0.159,-0.262c-0.326,-0.553 -1.07,-1.921 -1.578,-3.631c-0.055,-0.185 -0.108,-0.373 -0.157,-0.564c-0,0 -0.04,-0.343 -0.076,-0.915c-0.11,-1.647 -0.213,-5.188 0.599,-7.987c-0,0 -0.148,-2.008 -1.784,-4.754c-0,-0 -2.005,-3.958 -1.178,-9.047c0,-0 0.885,-3.285 0.811,-4.287c-0,-0 -2.535,-2.871 -4.335,-3.015c0,-0 1.251,6.142 1.168,9.446c0,0 0.713,11.542 1.849,14.174c0,-0 2.756,13.997 3.905,28.153c0,0 -0.319,0.642 -2.321,1.586c-3.151,1.488 -10.478,3.725 -27.31,5.387c0,0 -19.43,1.231 -31.144,-3.344c-0.628,-0.242 -1.238,-0.506 -1.816,-0.785c-0,-0 -0.944,-14.349 1.503,-24.108c0,-0 1.953,-5.963 0.472,-10.809c-0,-0 -1.137,-5.887 -1.096,-11.032c0.005,-0.177 0.006,-0.352 0.011,-0.526c0.031,-1.255 0.139,-2.452 0.357,-3.49c0,0 0.567,-6.598 -0.686,-8.634c0,-0 -4.276,6.806 -0.794,11.805c0,-0 0.322,0.236 0.307,0.843c-0.012,0.453 -0.214,1.119 -0.881,2.046c0,-0 0.362,1.512 -0.184,3.404c-0,-0 -0.221,0.794 -1.545,1.663c0,-0 -0.534,5.297 1.086,8.644c0,0 0.124,0.692 -0.211,1.955c-0.292,1.105 -0.941,2.651 -2.335,4.558c-0.287,0.39 -0.603,0.794 -0.953,1.215c-0,0 0.669,0.765 1.438,1.512c0.637,0.62 1.346,1.227 1.796,1.373c0,0 -1.51,4.273 -2.126,4.859c0,-0 -0.174,3.001 -8.171,2.2c0,0 -0.744,-0.538 -1.512,-1.667c-0.351,-0.51 -0.708,-1.145 -1.002,-1.903c0,-0 0.234,-1.398 0.261,-2.498c0,0 -0.401,-0.788 -0.966,-1.971Z" style="fill:#fff;stroke:#fff;stroke-width:1.45px;"/><path d="M506.795,75.083c-0,-0 -1.834,-2.751 -9.247,-6.844c0,0 -3.74,-2.597 -5.475,-9.455c0,0 -1.751,-10.164 0.922,-16.809c0,0 2.743,-9.55 4.717,-12.407c-0,-0 1.621,-4.766 8.456,-5.599c0,-0 2.925,-0.829 7.142,2.883c0,0 3.341,2.588 4.647,6.528c0.626,1.894 1.059,5.737 1.23,6.944c-0,-0 0.771,5.231 0.785,8.637c0,0 -0.52,8.803 -1.593,11.683c-0,-0 -2.561,6.248 -5.732,8.775c0,-0 -2.962,2.33 -5.852,5.664Z" style="fill:none;stroke:#d8d9d9;stroke-width:1.45px;"/><path d="M490.478,66.461c0,-0 1.775,5.253 5.938,7.061" style="fill:none;stroke:#d8d9d9;stroke-width:1.45px;"/><path d="M522.482,64.855c-0,0 -0.431,5.198 -4.609,8.001" style="fill:none;stroke:#d8d9d9;stroke-width:1.45px;"/><path d="M467.823,155.167c0,0 0.208,3.712 0.71,3.724c-0,0 5.494,0.639 8.679,-2.488c0,-0 -0.68,-0.919 -1.218,-3.436" style="fill:none;stroke:#d8d9d9;stroke-width:1.45px;"/><path d="M544.844,152.281c0,0 -0.78,3.185 -1.093,3.679c0,0 4.495,4.522 8.386,1.21c0,0 0.765,-2.583 0.572,-2.79" style="fill:none;stroke:#d8d9d9;stroke-width:1.25px;"/><path d="M483.614,164.879c-0,0 31.513,5.897 54.558,-2.145" style="fill:none;stroke:#d8d9d9;stroke-width:1.25px;"/><path d="M547.953,152.418c4.106,3.166 4.735,1.898 4.735,1.898c0.192,0.203 -0.568,2.753 -0.568,2.753c-3.869,3.266 -8.34,-1.196 -8.34,-1.196c0.311,-0.488 1.086,-3.63 1.086,-3.63c1.805,-0.45 3.087,0.175 3.087,0.175Z" style="fill:#d8d9d9;fill-rule:nonzero;stroke:#d8d9d9;stroke-width:0.54px;stroke-linejoin:round;"/><path d="M476.397,152.906c0.536,2.484 1.212,3.39 1.212,3.39c-3.168,3.086 -8.631,2.454 -8.631,2.454c-0.499,-0.012 -0.706,-3.674 -0.706,-3.674c7.952,0.791 8.125,-2.17 8.125,-2.17Z" style="fill:#d8d9d9;fill-rule:nonzero;"/><path d="M497.86,67.523c0,0 -3.721,-2.512 -5.451,-9.137c-0,-0 -1.749,-9.82 0.904,-16.238c0,0 2.721,-9.223 4.682,-11.982c-0,-0 1.609,-4.603 8.406,-5.403c-0,-0 2.907,-0.799 7.104,2.791c0,-0 3.325,2.501 4.626,6.309c0.623,1.83 1.057,5.543 1.228,6.709c0,-0 0.771,5.054 0.787,8.344c0,-0 -0.511,8.503 -1.576,11.284c-0,0 -2.542,6.035 -5.694,8.473c0,0 -2.944,2.25 -5.816,5.468c0,-0 -1.826,-2.659 -9.2,-6.618Z" style="fill:#d8d9d9;fill-opacity:0.3;fill-rule:nonzero;stroke:#d8d9d9;stroke-width:0.54px;stroke-linejoin:round;"/><path d="M500.642,73.779c0,0 0.583,2.636 -0.882,5.417c-0,0 -2.417,3.054 -2.544,4.187c-0,-0 -1.853,6.33 2.182,10.286c0,0 0.176,0.992 -1.364,0.758c0,0 -4.305,-5.102 -1.887,-12.159c-0,-0 0.489,-1.619 2.12,-3.159c0,-0 1.563,-2.728 1.337,-5.652c0,-0 0.763,-0.622 1.038,0.322Z" style="fill:#d8d9d9;fill-rule:nonzero;"/><path d="M526.687,88.17c-0,-0 0.788,0.637 -0.53,1.458c0,-0 -6.622,-1.052 -9.456,-7.959c-0,-0 -0.7,-1.542 -0.483,-3.767c-0,-0 -0.623,-3.079 -2.724,-5.14c0,0 0.165,-0.968 0.998,-0.431c-0,-0 2.18,1.611 2.911,4.666c0,0 0.19,3.878 0.842,4.82c0,0 2.78,5.986 8.442,6.353Z" style="fill:#d8d9d9;fill-rule:nonzero;"/><path d="M543.076,148.144c0,0 1.195,0.03 1.671,0.374c0,0 0.208,0.785 1.582,1.042c0,-0 1.597,0.449 4.272,-0.487c0,0 1.302,3.295 2.968,3.856l0.094,0.059c-0.318,0.52 -0.646,0.977 -0.975,1.328c0,-0 -0.629,1.268 -4.735,-1.898c-0,-0 -1.282,-0.625 -3.087,-0.175c0,0 -2.565,-0.954 -2.422,-2.73c0,0 0.212,-0.581 0.627,-1.372l0.005,0.003Z" style="fill:#d8d9d9;fill-rule:nonzero;"/><path d="M551.888,143.684c0,-0 -1.518,-0.483 -3.545,-0.237c-0,-0 -0.453,0.175 -1.42,1.557c-0,-0 -0.497,0.51 -1.568,-0.075c0,0 -0.408,1.399 -1.998,2.21l-0.089,0.004c-0.325,-0.545 -1.065,-1.895 -1.57,-3.583l0.066,-0.019c0,-0 1.85,-0.696 2.472,-1.68c0,0 0.88,0.69 2.314,0.132c-0,0 0.834,-0.498 1.055,-1.788c-0,-0 3.604,0.754 4.283,3.479Z" style="fill:#d8d9d9;fill-rule:nonzero;"/><path d="M541.401,122.242c0.135,-0.092 4.46,-3.055 5.45,-4.598c-0.09,0.19 -2.449,5.12 -6.288,6.987c0,-0 7.288,6.072 9.956,9.767c-0.171,-0.108 -5.6,-3.572 -9.144,-5.336c-0,-0 1.64,2.151 2.709,5.142c-0,0 0.375,1.121 -0.385,2.066c0,-0 -0.905,0.867 1.307,2.291c-0,0 1.143,1.44 -1.302,1.895c-0,-0 -0.124,0.589 -0.918,1.349c-0,0 -0.453,0.787 -1.519,0.419c-0.107,-1.624 -0.208,-5.116 0.589,-7.877c-0,0 -0.145,-1.98 -1.748,-4.688c-0,-0 -1.965,-3.903 -1.153,-8.922c-0,-0 0.867,-3.239 0.795,-4.228c-0,-0 -2.484,-2.831 -4.248,-2.973c-0,0 1.224,6.057 1.143,9.316c-0,0 0.697,11.383 1.81,13.978c0,-0 2.699,13.804 3.824,27.764c-0,0 -0.314,0.632 -2.276,1.565l-0.019,-0.042c-0,-0 1.101,-2.789 0.041,-7.558c0,-0 -0.402,-1.59 -0.429,-4.508c-0,0 -0.616,-6.732 -3.57,-10.414c-0,0 1.96,0.197 1.645,-0.996c-0,-0 -1.998,-6.474 -1.251,-10.801c0,0 0.11,-4.396 -2.931,-8.521c0,-0 0.442,0.011 1.295,-0.759c0,-0 1.101,-0.764 -0.004,-5.731c-0,0 -1.552,-2.757 0.037,-5.385c0,0 -5.011,-11.686 -3.341,-15.696c0,-0 1.06,4.769 3.498,7.4c0,0 4.659,-13.837 6.104,-16.341c-0.139,0.471 -5.076,17.087 -4.24,22.414c-0,0 0.193,2.08 2.615,-2.552c0,-0 -0.856,4.772 0.138,6.279c-0,-0 4.548,-7.383 6.209,-30.502c-0.091,1.554 -1.666,27.07 -4.539,34.397c0,0 1.439,0.43 5.034,-10.78c-0,0 -1.409,10.633 -4.894,16.179Z" style="fill:#d8d9d9;fill-rule:nonzero;"/><path d="M491.201,152.598c0,-0 -0.274,1.451 -7.572,-3.628c-0,0 4.925,7.623 9.107,11.845c-0.197,-0.134 -6.565,-4.419 -9.825,-7.346c-0,0 0.76,1.392 -0.222,2.884c0,-0 -0.356,0.285 -0.885,-0.463c0,-0 -1.492,9.858 -0.238,11.456l0.47,0.441c-0.624,-0.236 -1.231,-0.495 -1.807,-0.768c0,-0 -0.944,-14.031 1.486,-23.572c-0,-0 1.939,-5.83 0.464,-10.569c-0,-0 -1.133,-5.756 -1.094,-10.787c0.004,-0.173 0.006,-0.344 0.01,-0.514l0.394,0.007c-0.015,0.596 0.211,2.065 2.425,3.696c-0,-0 0.89,0.266 0.014,3.38c0,0 -0.386,1.46 1.177,2.772c0,-0 1.22,0.962 -0.416,2.684c-0,0 -0.774,1.06 -0.96,2.524c-0,0 0.534,2.559 -0.642,5.715c-0,0 -1.761,2.748 8.114,10.243Z" style="fill:#d8d9d9;fill-rule:nonzero;"/><path d="M475.685,146.495c-5.351,0.073 -5.865,-2.4 -5.865,-2.4c2.207,0.651 5.869,-0.374 5.869,-0.374l0.018,0.019c-0.348,0.329 -0.727,0.667 -1.142,1.015c-0,-0 0.524,0.86 1.149,1.718l-0.029,0.022Z" style="fill:#d8d9d9;fill-rule:nonzero;"/><path d="M465.572,147.269c1.383,1.011 2.942,2.099 4.686,2.116c-0.133,1.458 -1.866,1.788 -2.983,1.757c0.717,0.696 0.985,1.804 -0.232,2.209l-0.113,0.084c-0.331,-0.504 -0.669,-1.13 -0.946,-1.879c-0,-0 0.222,-1.381 0.249,-2.467c0,-0 -0.378,-0.779 -0.913,-1.946l0.252,0.126Z" style="fill:#d8d9d9;fill-rule:nonzero;"/><path d="M475.855,140.733c-0,-0 0.264,1.388 -5.981,2.122c-0,0 -2.152,0.344 -4.989,-1.803c0,-0 -0.303,-1.74 3.798,-0.401c-0,0 0.723,0.959 7.172,0.082Z" style="fill:#d8d9d9;fill-rule:nonzero;"/><path d="M473.312,82.377c2.87,1.889 2.346,6.399 2.346,6.399c-0.837,3.574 0.578,6.762 0.578,6.762c-3.122,-2.116 -2.426,-6.031 -2.426,-6.031c0.473,-4.102 -0.498,-7.13 -0.498,-7.13Z" style="fill:#d8d9d9;fill-rule:nonzero;"/><path d="M469.249,85.057c-0,-0 1.111,-0.218 1.758,3.357c-0,-0 -0.508,7.698 1.996,12.752c0,-0 2.065,5.835 4.79,6.348c0,-0 -2.207,-2.28 -3.385,-7.745c0,-0 2.601,5.403 4.001,6.227c0,-0 -0.463,-4.609 -0.52,-6.487c-0,-0 1.24,2.946 1.741,3.996c0,0 0.802,-2.649 1.345,-3.276c0,0 0.558,2.98 0.831,4.665c0,0 2.135,0.896 2.327,1.69c-0,-0 0.549,1.152 -0.854,4.724c-0,-0 -0.824,1.364 1.572,2.314c-0,-0 -1.047,1.952 -1.991,3.856c-0,-0 -0.335,0.733 -0.586,2.456c-0,-0 -0.857,0.571 -0.931,1.361c0,0 -0.028,0.104 -0.032,0.284l-0.417,-0.007c0.031,-1.239 0.142,-2.42 0.37,-3.443c0,-0 0.586,-6.51 -0.734,-8.521c-0,-0 -4.482,6.709 -0.816,11.647c0,-0 0.339,0.234 0.324,0.833c-0.012,0.447 -0.223,1.103 -0.922,2.017c-0,-0 0.383,1.492 -0.188,3.358c-0,0 -0.231,0.783 -1.62,1.638c-0,0 -0.554,5.227 1.154,8.532c0,0 0.132,0.683 -0.218,1.928c-0.236,0.089 -3.675,1.35 -5.699,-1.088c0,0 2.045,0.3 3.713,-1.094c-0,0 0.3,-1.522 -0.948,-4.175c0,-0 -0.874,-0.912 1.122,-4.964c0,0 -1.61,-0.781 -1.313,-2.159c-0,0 1.475,-0.011 2.465,-1.718c-0,0 0.964,-0.667 -2.677,-2.439c-0,-0 -1.613,-0.782 -2.719,-2.785c-0,0 2.499,1.1 3.387,-0.805c-0,-0 1.144,-1.555 -1.127,-3.341c0,-0 2.907,-0.423 2.34,-3.005c-0,-0 -6.139,-7.123 -7.306,-19.413c-0,0 -0.327,-3.763 0.356,-5.822c0,0 0.38,-0.536 -0.589,-1.696Z" style="fill:#d8d9d9;fill-rule:nonzero;"/><path d="M465.083,147.137c1.454,1.012 3.343,2.233 5.175,2.252c-0.138,1.456 -1.958,1.784 -3.132,1.752c0.754,0.695 1.037,1.803 -0.24,2.207" style="fill:none;stroke:#d8d9d9;stroke-width:0.54px;"/><path d="M464.885,141.052c0,-0 -0.303,-1.74 3.798,-0.401c-0,0 0.723,0.959 7.172,0.082c-0,-0 0.264,1.388 -5.981,2.122c-0,0 -2.152,0.344 -4.989,-1.803Z" style="fill:none;stroke:#d8d9d9;stroke-width:0.54px;"/><path d="M492.733,160.935c-0,-0 -0.003,-0 -0.006,-0.003c-0.197,-0.131 -6.564,-4.316 -9.824,-7.173c-0,0 0.761,1.358 -0.22,2.813c0,0 -0.356,0.278 -0.885,-0.452c0,0 -1.439,9.682 -0.184,11.242l0.62,0.256l0.451,0.185" style="fill:none;stroke:#d8d9d9;stroke-width:0.54px;"/><path d="M478.051,139.551c0,-0 -0.003,0.003 -0.012,0.005c-0.231,0.089 -3.603,1.352 -5.585,-1.085c-0,-0 2.004,0.299 3.64,-1.096c-0,0 0.295,-1.523 -0.927,-4.175c-0,0 -0.856,-0.911 1.102,-4.964c0,0 -1.578,-0.781 -1.286,-2.158c-0,-0 1.445,-0.012 2.417,-1.719c-0,-0 0.945,-0.668 -2.623,-2.439c-0,0 -1.581,-0.781 -2.664,-2.783c-0,0 2.449,1.099 3.32,-0.807c0,0 1.122,-1.555 -1.102,-3.34c-0,0 2.849,-0.424 2.294,-3.006c0,-0 -6.013,-7.12 -7.152,-19.409c0,-0 -0.318,-3.763 0.353,-5.822c-0,0 0.372,-0.536 -0.577,-1.696c-0,-0 1.089,-0.219 1.721,3.356c0,-0 -0.502,7.698 1.951,12.751c-0,-0 2.021,5.834 4.692,6.345c0,0 -2.162,-2.278 -3.314,-7.743c-0,-0 2.546,5.402 3.919,6.225c-0,0 -0.452,-4.608 -0.507,-6.487c-0,0 1.214,2.946 1.705,3.996c0,0 0.787,-2.649 1.32,-3.277c0,0 0.545,2.98 0.812,4.665c0,-0 2.092,0.894 2.28,1.688c-0,0 0.538,1.152 -0.84,4.724c0,0 -0.808,1.365 1.54,2.314c0,-0 -1.027,1.952 -1.953,3.857c-0,-0 -0.328,0.733 -0.576,2.456c0,-0 -0.841,0.572 -0.913,1.362c0,0 -0.027,0.103 -0.032,0.284c-0.015,0.602 0.22,2.084 2.513,3.731c0,0 0.922,0.27 0.018,3.411c-0,0 -0.399,1.473 1.22,2.798c0,0 1.264,0.972 -0.429,2.709c-0,-0 -0.801,1.068 -0.992,2.546c-0,0 0.554,2.583 -0.661,5.767c-0,0 -1.822,2.772 8.409,10.341c0,0 -0.234,1.181 -7.795,-3.949c-0,0 5.057,7.98 9.39,12.243" style="fill:none;stroke:#d8d9d9;stroke-width:0.54px;"/><path d="M473.312,82.377c0,-0 0.971,3.028 0.498,7.13c-0,-0 -0.696,3.915 2.426,6.031c0,-0 -1.415,-3.188 -0.578,-6.762c-0,-0 0.524,-4.51 -2.346,-6.399Z" style="fill:none;stroke:#d8d9d9;stroke-width:0.54px;"/><path d="M550.817,134.434l-0.003,-0.003c-0.173,-0.108 -5.683,-3.576 -9.279,-5.342c-0,-0 1.665,2.153 2.75,5.146c-0,0 0.381,1.122 -0.39,2.066c0,0 -0.918,0.867 1.327,2.293c0,0 1.16,1.441 -1.321,1.895c0,0 -0.125,0.59 -0.93,1.35c-0,0 -0.158,0.749 -1.24,0.381c-0.011,-0.003 -0.007,-0.077 -0.356,-0.111" style="fill:none;stroke:#d8d9d9;stroke-width:0.54px;"/><path d="M547.09,117.661c-0,0 -0,0.003 -0.003,0.003l-0,0.003c-0.092,0.19 -2.484,5.122 -6.377,6.988c-0,0 7.396,6.078 10.104,9.776" style="fill:none;stroke:#d8d9d9;stroke-width:0.54px;"/><path d="M541.555,122.268l0.004,-0.003c0.136,-0.091 4.524,-3.054 5.528,-4.598" style="fill:none;stroke:#d8d9d9;stroke-width:0.54px;"/><path d="M546.013,82.377c-0,0.015 -0.001,0.03 -0.004,0.044c-0,0.009 -0,0.018 -0.001,0.03c-0.092,1.555 -1.68,27.083 -4.593,34.413c0,0 1.46,0.431 5.103,-10.784c0,0 -1.425,10.639 -4.959,16.185" style="fill:none;stroke:#d8d9d9;stroke-width:0.54px;"/><path d="M541.221,86.804c0,-0 0,0.003 -0.003,0.009c-0.14,0.471 -5.144,17.094 -4.293,22.424c-0,-0 0.196,2.081 2.652,-2.553c0,0 -0.867,4.774 0.142,6.282c0,0 4.612,-7.385 6.289,-30.515" style="fill:none;stroke:#d8d9d9;stroke-width:0.54px;"/><path d="M540.137,166.162c-0,0 1.115,-2.79 0.039,-7.562c-0,0 -0.409,-1.591 -0.438,-4.51c0,0 -0.626,-6.736 -3.625,-10.42c-0,-0 1.989,0.198 1.668,-0.997c0,0 -2.029,-6.477 -1.272,-10.806c0,-0 0.11,-4.398 -2.976,-8.527c-0,0 0.448,0.011 1.313,-0.759c-0,0 1.116,-0.764 -0.006,-5.733c-0,0 -1.576,-2.759 0.035,-5.388c0,0 -5.088,-11.694 -3.395,-15.705c0,-0 1.077,4.772 3.552,7.405c-0,-0 4.722,-13.842 6.186,-16.347" style="fill:none;stroke:#d8d9d9;stroke-width:0.54px;"/><path d="M541.729,143.697c-0,0 1.85,-0.695 2.472,-1.679c-0,0 0.879,0.689 2.313,0.132c0,0 0.835,-0.498 1.055,-1.789c0,0 3.604,0.755 4.284,3.479c-0,0 -1.519,-0.482 -3.546,-0.236c0,-0 -0.452,0.175 -1.42,1.557c0,-0 -0.497,0.509 -1.567,-0.075c0,0 -0.409,1.399 -1.998,2.21" style="fill:none;stroke:#d8d9d9;stroke-width:0.54px;"/><path d="M543.076,148.144c0,0 1.195,0.03 1.671,0.374c0,0 0.208,0.785 1.582,1.042c0,-0 1.597,0.449 4.272,-0.487c0,0 1.302,3.295 2.968,3.856" style="fill:none;stroke:#d8d9d9;stroke-width:0.54px;"/><path d="M499.604,73.457c0,-0 0.763,-0.622 1.038,0.322c0,0 0.583,2.636 -0.882,5.417c-0,0 -2.417,3.054 -2.544,4.187c-0,-0 -1.853,6.33 2.182,10.286c0,0 0.176,0.992 -1.364,0.758c0,0 -4.305,-5.102 -1.887,-12.159c-0,-0 0.489,-1.619 2.12,-3.159c0,-0 1.563,-2.728 1.337,-5.652Z" style="fill:none;stroke:#d8d9d9;stroke-width:0.54px;"/><path d="M513.494,72.762c0,0 0.165,-0.968 0.998,-0.431c-0,-0 2.18,1.611 2.911,4.666c0,0 0.19,3.878 0.842,4.82c0,0 2.78,5.986 8.442,6.353c-0,-0 0.788,0.637 -0.53,1.458c0,-0 -6.622,-1.052 -9.456,-7.959c-0,-0 -0.7,-1.542 -0.483,-3.767c-0,-0 -0.623,-3.079 -2.724,-5.14Z" style="fill:none;stroke:#d8d9d9;stroke-width:0.54px;"/></g></svg>